# xmcd
#
# Track frame offsets:
#	150
#	19398
#	41828
#	60939
#	81198
#	108482
#	126645
#	158901
#	178710
#	199151
#	231590
#
# Disc length: 3329
#
# Revision: 1
# Processed by: cddbd v1.5.1PL0 Copyright (c) Steve Scherf et al.
# Submitted via: EasyCDDAExtractor 4.5.0.1
# Normalized: r0:TDELIM( - )
#
DISCID=9d0cff0b
DTITLE=Ian Brown - The Ian Brown Session CD 2
DYEAR=2001
DGENRE=Easylistening
TTITLE0=Unkle Feat. Ian Brown - Be There
TTITLE1=Son of Bazerk - Are You With Me?
TTITLE2=Paris - Devil Made Me Do It
TTITLE3=Genius/GZA - Basic Instructions Before Leaving Earth
TTITLE4=45 King - The 900 Number
TTITLE5=Coolio - Gangsters Paradise
TTITLE6=Eric B and Rakim - Paid in Full (Coldcut Mix)
TTITLE7=Cymande - The Fug
TTITLE8=Orange Lemon - Dreams of Santa Anna
TTITLE9=Mr Fingers - Stars
TTITLE10=Armand Van Helden - You Don't Know Me
EXTD=
EXTT0=
EXTT1=
EXTT2=
EXTT3=
EXTT4=
EXTT5=
EXTT6=
EXTT7=
EXTT8=
EXTT9=
EXTT10=
PLAYORDER=
